<svg id="Layer_1" data-name="Layer 1" xmlns="http://www.w3.org/2000/svg" width="913.57" height="585.94" viewBox="0 0 913.57 585.94"><path d="M85.4,559.21c-16.51,0-27.6-3.51-33.82-10.82a40.38,40.38,0,0,1-9.2-27.87,137,137,0,0,1,6.49-37.61C53.2,468.3,57.8,454.22,62.67,441c6.22-17.86,13.53-38.7,22.46-62.78,8.66-24.08,18.13-49.25,28.14-75.49s20.29-52.23,30.58-77.66,20.56-48.71,30.3-69.27c-25.16.27-46.27.81-63,1.62s-32.2,1.89-45.73,3c-13.53,1.35-28.14,3.24-44.38,6.22,1.08-12.45,7.58-21.92,19.21-29s27.33-11.91,47.08-14.89a464.36,464.36,0,0,1,67.11-4.33c25.16,0,47.62,1.09,67.38,3s38.42,3.79,56,5.68,34.9,3,52.49,3.25a84.82,84.82,0,0,1-42.48,21.38A291.9,291.9,0,0,1,236.93,156c-4.06,0-8.12,0-12.45-.27s-8.66-.27-13.26-.27h-13c-11.64,29.22-25.17,66-40.05,110.4q-22.73,66.56-45.73,150.17-7.71,28.82-13.8,51.95c-4.06,15.16-7.58,29.23-9.74,42.22a188.68,188.68,0,0,0-3.52,37.07v6A11.13,11.13,0,0,0,85.4,559.21Z" fill="#014978" stroke="#014978" stroke-miterlimit="10" stroke-width="15"/><path d="M648,559.21c-16.5,0-27.6-3.51-33.82-10.82a40.43,40.43,0,0,1-9.2-27.87,137.35,137.35,0,0,1,6.49-37.61c4.33-14.61,8.93-28.69,13.53-41.94,6.23-17.86,13.8-38.7,22.46-62.78s18.13-49.25,28.14-75.49,20.3-52,30.58-77.66c10.28-25.44,20.56-48.71,30.31-69.54-25.17.27-46.27.81-63.05,1.62-17,.81-32.2,1.62-45.73,3s-28.14,3.24-44.38,6.22c1.09-12.45,7.58-21.92,19.21-28.95s27.33-11.91,47.09-14.62a464.22,464.22,0,0,1,67.1-4.33c25.17,0,47.63,1.09,67.38,3s38.42,3.79,56,5.68,34.91,3,52.5,3.25a85.7,85.7,0,0,1-42.76,21.38A291.82,291.82,0,0,1,798.94,156c-4.06,0-8.12,0-12.45-.27s-8.65-.27-13-.27h-13c-11.64,29.22-25.17,66-40,110.4s-30.3,94.43-45.73,150.17Q667,444.89,660.94,468c-4.06,15.16-7.57,29.23-9.74,42.22a189.45,189.45,0,0,0-3.52,37.07v6A22,22,0,0,0,648,559.21Z" fill="#014978" stroke="#014978" stroke-miterlimit="10" stroke-width="15"/><path d="M374.93,442.59a4.74,4.74,0,0,0,1.35-1.08c7-9.47,14.61-18.13,20-28.69,4.05-7.84,7.57-16.23,11.36-24.08a221.11,221.11,0,0,1,16.24-29.22,83.53,83.53,0,0,1,23.27-22.46c8.39-5.68,17.31-11.09,26.24-16a412,412,0,0,0,45.19-29c7.31-5.41,14.61-10.82,22.19-16a40.37,40.37,0,0,1,7.58-4.06,4.78,4.78,0,0,1,6.22,2.16,5.13,5.13,0,0,1,.54,2.17,21,21,0,0,1-.54,4.06,91.8,91.8,0,0,1-8.12,17.31c-6.76,10.83-13.26,22.19-20.29,32.75-10,14.88-20.57,29.49-31.12,44.1a301.93,301.93,0,0,1-27.6,31.12,35.74,35.74,0,0,1-15.15,9.74,166.62,166.62,0,0,1-20,5.41c-4.87,1.08-10.28,1.08-15.15,1.9-6.49,1.08-13.26,2.43-19.75,3.24a14,14,0,0,0-9.47,5.69,98,98,0,0,0-20.57,46.54c-1.89,12.44-3.51,25.16-4.87,37.61-.54,6-.54,11.9-.81,18.13-.27,7.57-.54,15.15-.54,22.73,0,3,0,6,.27,8.93a17.73,17.73,0,0,1,0,3.79c-.27,1.35,0,3-1.62,3-.82,0-1.63-1.62-1.9-3a8.94,8.94,0,0,1,0-3.79c0-9.47,0-18.94.27-28.14a390.13,390.13,0,0,1,10-79,99.94,99.94,0,0,0,3.79-20,10.47,10.47,0,0,1,.81-2.71c2.44-9.47,5.42-18.94,7.58-28.41a76.49,76.49,0,0,0,.81-15.69c0-8.66-.27-17.05,0-25.71a120.18,120.18,0,0,0-3.51-26A21,21,0,0,0,369,327.32a72.33,72.33,0,0,1-24.36-28.95c-3.51-7.31-7.57-14.35-10.55-22.19a72,72,0,0,1-5.68-31.93c.54-8.39,2.16-16.51,3-24.9,1.36-12.44,2.44-24.89,3.79-37.34.54-5.14,1.36-10.28,1.9-15.42.81-7.58,1.08-15.15,2.43-22.73,1.36-8.12,3.52-16,5.41-23.81a9.53,9.53,0,0,1,1.63-3.79c1.35-2.44,3.52-3,5.41-1.08a24.46,24.46,0,0,1,3.79,5.41,120.66,120.66,0,0,1,9.2,27.33c3.24,14.07,6.76,28.14,10,42.48,1.62,7,2.43,14.61,5.14,21.38,7.85,19.21,9.2,39.23,8.12,59.8-.54,8.39-1.9,16.5-2.71,24.89-.81,7.58-1.35,15.15-2.16,22.73-.54,4.33-1.08,8.39-1.63,12.72a101.59,101.59,0,0,0,1.09,20.29,148.15,148.15,0,0,1,1.08,15.43c.27,7,0,14.07.27,21.37v1.9c2.16.54,2.43-.81,3-2.17,2.43-6.76,4.33-13.53,7-20.29,3.79-9.74,7.85-18.94,11.64-28.68a441.1,441.1,0,0,1,27.06-60.07,7.76,7.76,0,0,0,1.08-3.25A61,61,0,0,1,438,256.7c3-7.85,5.95-15.7,9.2-23.28a13.47,13.47,0,0,0,0-9.2c-2.71-8.92-6-18.12-8.12-27.32A85.68,85.68,0,0,1,438,159.82c2.43-11.09,5.14-22.18,8.66-33,6.22-19.48,11.9-39.23,17.85-59,1.63-5.41,3.52-10.82,5.42-16.23,3.24-9.47,6.49-19.21,10-28.68a24.72,24.72,0,0,1,4.33-7.31c2.43-3.25,5.95-2.7,7.3,1.08a55.53,55.53,0,0,1,2.71,11.64c1.89,14.88,3.25,29.76,3.79,44.65.54,13.53,1.08,26.78,1.62,40.31.27,6,.81,11.91.81,17.86-.27,3.25-.54,6.77-1.08,10,0,.55,0,1.36.27,1.36a1.72,1.72,0,0,0,1.62,0,6.8,6.8,0,0,0,1.63-1.36l20-20.56c.81-.81,1.63-1.62,2.44-2.44C537.55,106,549.73,93.8,560.82,80.54a89.38,89.38,0,0,1,22.73-18.67c1.63-1.08,3.25-2.43,5.42-1.08a5.2,5.2,0,0,1,1.62,5.41A30.85,30.85,0,0,1,589,73a571.24,571.24,0,0,1-26.79,58.44c-7.58,13.8-16.24,27.06-23.54,40.86a220.86,220.86,0,0,1-27.6,39,257.46,257.46,0,0,1-26.25,25.16c-12.72,11.1-25.44,22.19-39,32.2a36.54,36.54,0,0,0-8.66,10.55,196.86,196.86,0,0,0-14.61,29.23c-9.2,21.92-18.67,43.56-26.79,65.75a457.67,457.67,0,0,0-17.31,57.64c-.54,3-1.63,6-2.44,8.93a11.08,11.08,0,0,0-.27,3ZM475.05,167.4A10.12,10.12,0,0,0,481,159a270.34,270.34,0,0,0,4.33-44.37c0-5.69-.27-11.37-.27-17a8.67,8.67,0,0,1,.81-3.79h.81a3.91,3.91,0,0,1,.54,1.9c.27,6.49.55,12.71.82,19.21a219.62,219.62,0,0,1-2.71,32.47c-.27,2.43-.54,4.87-.81,7,0,.54.54,1.09.81,1.9.54-.27,1.35-.27,1.62-.81a11.9,11.9,0,0,0,1.36-3.25,154.22,154.22,0,0,0,3.24-27.06v-1.35a2.7,2.7,0,0,1,1.36-1.09c.27,0,.81.55,1.08.82a18.23,18.23,0,0,1,.54,3.78c-.54,5.69-1.35,11.1-1.89,16.78v4.6h.81c1.08-5.14,2.16-10.28,3-15.69a80.25,80.25,0,0,0-.27-18.13c-.81-9.47-.81-18.94-1.08-28.69A401.61,401.61,0,0,0,491,29.13l-1.62-9.74c-.27-1.08-.54-2.71-2.17-2.71a3.27,3.27,0,0,0-3,2.17,6.45,6.45,0,0,0-1.63,3c-2.7,7.85-5.68,15.43-8.11,23.28-1.09,3-1.36,6.22-2.44,9.2-2.43,8.11-5.14,16-7.58,23.81-5.68,18.67-11.63,37.07-17.31,55.74a180.47,180.47,0,0,0-7,31.39,92.57,92.57,0,0,0,1.08,27.33,160.18,160.18,0,0,0,7.31,27.05,8,8,0,0,0,1.35,1.9,9.54,9.54,0,0,0,1.63-1.62,9.2,9.2,0,0,0,.54-8.39c-1.08-3.25-2.17-6.77-3-10-1.89-7-1.35-14.35-1.62-21.65,0-.54.54-1.08.81-1.9h.54a22.82,22.82,0,0,1,1.08,4.06c.54,4.87.54,9.74,1.36,14.61a90.57,90.57,0,0,0,2.7,11.64c.27.54,1.08,1.08,1.63,1.62l1.35-1.35A15.88,15.88,0,0,0,458.27,198a132.39,132.39,0,0,1-1.62-38.7,101.14,101.14,0,0,1,2.43-12.44c.27-1.09.54-1.9,2.17-1.36a4.64,4.64,0,0,1-.27,1.9,170.28,170.28,0,0,0-2.17,39c.54,3.25,1.08,6.5,1.9,9.74a13.44,13.44,0,0,0,3.51-10c-.27-8.66-.54-17.59-.81-26.25,0-3.24.27-6.76.27-10a13.16,13.16,0,0,1,.81-1.89h.82a9.59,9.59,0,0,1,.54,2.7c0,2.44-.27,4.88-.27,7.31,0,6.77,0,13.8.27,20.57a17.46,17.46,0,0,0,1.08,3.51h.81a9.59,9.59,0,0,0,.54-2.7c.54-5.14.81-10,1.36-15.16a398,398,0,0,1,4.87-44.1,14.76,14.76,0,0,1,3.51-8.12c-3,20.29-4.87,40.86-5.95,61.69.81-1.35,2.44-3.51,3-6.22ZM369.52,301.34l3.24,3a10.45,10.45,0,0,0,.82-2.17c-.82-6.22-1.9-12.71-3-18.94A212.92,212.92,0,0,0,366,257v-2.44c.54.81,1.08,1.08,1.08,1.62,0,1.9,1.08,3.25,1.63,4.6q2.43,13.39,4.87,26.79c.27,1.63.81,3.25,1.08,4.87l1.89-1.62a12.51,12.51,0,0,1,1.09,1.89,12.86,12.86,0,0,0,.81,1.9h.81a26.83,26.83,0,0,0,.54-4.6c.27-4.6,0-9.2.27-13.53a119.87,119.87,0,0,0-2.71-32.74c-1.08-4.6-1.89-9.2-3-14.07h0a17.47,17.47,0,0,1,2.16,2.43,134.49,134.49,0,0,1,5.14,23.54c.55,3.25,1.09,6.5,1.63,10a2,2,0,0,0,.54-1.08,1,1,0,0,1,.27-.81,115.65,115.65,0,0,0-2.71-33.55c-1.89-7-4.6-13.8-6.22-20.57-4.06-16.23-7.58-32.74-11.36-49.24a240.37,240.37,0,0,0-8.93-33,47.06,47.06,0,0,0-3.79-7.3c-1.63-2.44-3-2.17-3.79.54-.81,2.16-1.35,4.33-2.17,6.76-4.32,19-5.41,38.16-7.84,57.37-.27,2.7.27,5.41,0,7.85-.54,5.41-1.36,10.55-2.17,16-1.08,7.85-2.16,16-3,23.81a90.26,90.26,0,0,0,.27,27.06,93.52,93.52,0,0,0,11.63,31.39,25.47,25.47,0,0,0,2.44,2.71l1.35-2.71c2.44,1.89,2.44,5.68,5.68,7-1.08-3.24-2.16-5.95-3-8.92a164.17,164.17,0,0,1-5.69-18.68c-1.62-8.38-2.43-17-3.51-25.43a20,20,0,0,1,.81-9.74,6.77,6.77,0,0,1,1.08,1.89c.54,4.6.81,9.2,1.35,13.8a154.27,154.27,0,0,0,3.52,21.92,186.75,186.75,0,0,0,21.38,49.52c.54.81,1.08,1.35,1.62,2.16a4.36,4.36,0,0,0,2.44.81v-2.7c0-.27-.27-.54-.27-.81-1.9-4.06-4.06-8.12-6-12.18-2.7-5.95-4.87-12.18-7.3-18.4-.27-1.08-.54-1.89,1.08-2.44,3.79,7.85,5.68,16.78,11.91,23.28a26.15,26.15,0,0,0-1.09-4.33,11.24,11.24,0,0,1-2.43-6.23Zm66.29,102h0c-.27.27-.54.82-.81.82-1.89.27-1.62,1.62-1.62,3l5.68-1.35.27.81c-2.16,1.08-4.06,2.17-5.95,3.25s-3.79,1.35-3.52,4.33a67.46,67.46,0,0,0,10.28-1.9,89.56,89.56,0,0,0,26-15.15l-.54,3.79a5.65,5.65,0,0,0,1.62-1.08c7.31-8.12,15.42-15.43,21.92-24.09,21.1-27.6,41.67-55.74,58.45-86a47.9,47.9,0,0,0,4-11.37c.55-2.43-.27-3.24-2.7-2.7a9.38,9.38,0,0,0-4.06,1.89l-12.18,8.93c-12.17,8.39-24.35,17.32-37.07,25.16-14.07,8.93-28.68,17.05-42.75,26a81.51,81.51,0,0,0-23.27,20.84,180.91,180.91,0,0,0-18.67,32.2c-4.06,8.11-7.85,16-11.64,24.08l-2.43,5.68V422c.54,0,1.35,0,1.62-.27a4.2,4.2,0,0,0,1.62-2.16c4.88-8.12,9.75-16.24,14.35-24.35a174.57,174.57,0,0,1,16-23.82c1.35-1.62,1.35-1.62,3-1.08-4.6,7-9.47,14.07-14.07,21.11s-8.39,14.61-12.72,21.92c1.35.81,2.16.27,2.7-1.09a17.24,17.24,0,0,1,3.52-5.41l15.43-14.61a457,457,0,0,0,37.34-38.42,12.75,12.75,0,0,1,2.43-1.63l.54.54a6.68,6.68,0,0,1-1.08,1.9c-.81,1.08-1.89,2.16-2.7,3.25-5.69,6.22-11.1,12.71-17,18.4-8.39,8.38-17.32,16.5-26,24.62l-2.43,3.25,3.78-.55h0a43.22,43.22,0,0,1-14.61,10.29l.54,1.89a13.06,13.06,0,0,0,3-1.08c5.95-3.25,11.91-6.5,17.59-9.74a39.57,39.57,0,0,1,5.14-1.9C435.27,402.81,435.54,403.08,435.81,403.35Zm48.71-175.07.81.82,3.25-2.44A196.39,196.39,0,0,0,527.27,182c3.79-5.95,7-12.44,10.55-18.67,7.58-12.72,15.7-25.16,22.46-38.15,8.12-16,15.43-32.47,22.73-48.71a64.76,64.76,0,0,0,3.25-10.28,2.59,2.59,0,0,0-.81-2.7,3.56,3.56,0,0,0-2.44,0c-1.08.54-1.89,1.08-3,1.62a99.78,99.78,0,0,0-23.55,21.65A177.41,177.41,0,0,1,534.85,110a72.67,72.67,0,0,0-7.58,8.11,12.07,12.07,0,0,1-1.89,1.9q-9.35,9.33-18.67,18.67c-3.79,4.06-7.58,8.12-11.1,12.18-6.49,7.3-13.26,14.07-19.48,21.64a90.87,90.87,0,0,0-13.26,26c-1.89,4.87-3.52,9.74-5.41,14.61,1.89-.54,1.62-3.25,4.6-3.25l-7.85,18.4.54.27c3-2.16,1.9-7.57,6.77-8.65-2.71,4.87-5.14,9.47-7.31,14.34-3.79,7.57-7.3,15.15-10.82,22.73a14.23,14.23,0,0,1-5.14,6.76,3.68,3.68,0,0,0-1.36,5.14c.27.27.27.54.55.81a28.33,28.33,0,0,0,8.11-10.55c2.71-4.87,4.87-10,7.58-14.88a493.63,493.63,0,0,1,30.58-47.9l6.49-8.93a8,8,0,0,1,5.68-3.78,432.16,432.16,0,0,0-47.62,76,5.6,5.6,0,0,0,2.7-1.62l4.06-4.87c1.36-1.63,3.79-3.25,5.42-4.87a4.37,4.37,0,0,0,1.62-3.52,4.21,4.21,0,0,1,1.35-3.79c1.08-1.08,2.17-2.7,3.25-3.79l2.16-2.43.54.27-.54,4.6a214.43,214.43,0,0,0,23.54-23.54v1.35a21,21,0,0,1-5.68,8.12A31,31,0,0,0,484.52,228.28ZM464.77,401.73l-.55-.54-1.62.81c-2.71,1.62-5.41,3.79-8.39,5.14a54.26,54.26,0,0,1-7,2.71,1.46,1.46,0,0,0-1.09.81,5.26,5.26,0,0,0-.27,2.16,7.31,7.31,0,0,0,2.44.28,29.72,29.72,0,0,0,11.63-6c1.63-1.89,3.25-3.79,4.88-5.41Zm-32.21,5.41c-1.62-.27-14.61,6.77-16.23,9.2a9.73,9.73,0,0,0,2.71-.54c3.78-1.62,7.3-3.25,10.82-4.87,1.08-1.08,3.25-1.62,2.7-3.79Zm7,8.12,6.22-2.16c-3.24-1.63-3.78-1.63-6.22,2.16ZM353.55,305.4l-.54.54c.54,2.17,1.08,3,3.52,3Z" fill="#014978" stroke="#014978" stroke-miterlimit="10" stroke-width="15"/></svg>