<?xml version="1.0" encoding="utf-8"?>
<!-- Generator: Adobe Illustrator 25.3.0, SVG Export Plug-In . SVG Version: 6.00 Build 0)  -->
<svg version="1.1" id="Layer_1" xmlns="http://www.w3.org/2000/svg" xmlns:xlink="http://www.w3.org/1999/xlink" x="0px" y="0px"
	 viewBox="0 0 1000 1000" style="enable-background:new 0 0 1000 1000;" xml:space="preserve">
<style type="text/css">
	.st0{fill:#014978;}
	.st1{fill:#FFFFFF;}
</style>
<g>
	<circle class="st0" cx="500" cy="500" r="500"/>
	<g>
		<path class="st1" d="M901.5,342.1c-16.1-0.2-31.9-1.2-48.3-3c-16.4-1.8-33.9-3.5-52.2-5.3c-19.4-1.9-40.7-2.8-63.3-2.8
			c-1.5,0-3.1,0-4.6,0c-18.7,0-38.5,1.4-58.8,4.1c-19.2,2.6-34.8,7.5-46.3,14.5c-12.7,7.7-19.8,18.4-21,31.9l-0.7,8.4l8.3-1.5
			c13.3-2.4,26.6-4.3,40.8-5.7c13-1.3,28-2.1,42.3-2.7c13.2-0.6,29.4-1.1,48.3-1.4c-8.5,18.5-16.6,37.3-24.1,55.8
			c-9.4,23.6-19.2,47.9-28.5,72.4c-7.6,19.8-17.4,45.7-26.3,70.4l-5.6,15.5c-5.9,16.3-10.9,30.3-15.4,43c-4.7,13.5-9,26.8-12.7,39.3
			c-3.9,12.7-6.1,25-6.3,36.7c-0.6,11,3,21.8,10.1,30.4c7.1,8.3,19,12.3,36.4,12.3h7.4l-1-7.3c-0.1-1-0.4-2.7-0.3-3.7l0.1-0.5v-6
			c0-11.6,1.1-22.8,3.2-33.3l0-0.2c2.1-12.4,5.5-25.9,9-38.7c3.8-14.3,8.1-30.5,12.8-48.3c13.5-48.7,27.8-95.7,42.5-139.5
			c12.3-36.6,24.2-69.7,35.6-98.4h7.7c4,0,7.9,0,11.7,0.2c4.2,0.3,8.2,0.3,12,0.3c16.7,0,33-1.4,48.6-4.1c16.3-3,31.2-10.5,43-21.5
			l11.7-10.9L901.5,342.1z"/>
		<path class="st1" d="M464.5,528.8c1.7-4,3.4-8,5.1-12.1c3.9-9.7,8.3-18.5,13.1-26.3l0.1-0.2l0.1-0.2c1.5-2.9,3.7-5.5,6.4-7.8
			c12.7-9.4,24.8-19.9,36.5-30.1c8.8-7.3,17-15.1,25.1-24.1c10.1-11.4,19-24,26.5-37.4l0.1-0.1c3.6-6.9,7.7-13.7,11.7-20.4
			c3.4-5.7,6.9-11.6,10.2-17.6c9.4-17.8,17.9-36.3,25.3-55.2c0.8-2.2,1.5-4.8,1.8-7.3c1-4.1-0.5-8.5-3.7-11.2l-0.3-0.3l-0.4-0.2
			c-1.6-1-3.3-1.5-5.1-1.5c-3.1,0-5.3,1.5-6.6,2.4l-0.1,0.1c-8.1,4.6-15.7,10.9-22.6,18.6l-0.1,0.1c-10.1,12.1-21.6,23.6-32.6,34.6
			l-2.3,2.3l-10,10.3c-0.1-2.5-0.2-5-0.4-7.4c-0.1-1.8-0.2-3.6-0.3-5.4l-1.5-37.5c-0.5-13.3-1.7-27-3.6-42.2
			c-0.6-4.6-1.5-8.4-2.8-12.1c-1.6-4.5-5.2-7.2-9.5-7.2c-3.1,0-6.2,1.6-8.3,4.3c-2,2.4-3.7,5.2-5,8.5l-0.1,0.1
			c-2.6,7.1-5.1,14.4-7.5,21.5l-1.8,5.4c-1.7,5-3.6,10.2-5.1,15.3c-1.7,5.6-3.3,11.2-5,16.7c-3.7,12.5-7.6,25.5-11.6,38.1
			c-3.7,11.3-6.3,22.7-8.3,31.5c-2.4,11.9-2,24.8,1.1,37.3c1.5,6.3,3.5,12.5,5.4,18.5c0.8,2.5,1.6,4.9,2.3,7.4l0.1,0.2l0.1,0.2
			c0.5,1.3,0.5,2.7,0,4c-3,7.1-5.9,14.5-8.6,21.7c-2.4,6.2-3.9,13.2-4.2,20.2c-0.1,0.2-0.2,0.4-0.3,0.6c-9.4,17.1-18,36.2-25.5,56.6
			c-1.7,4.5-3.6,8.9-5.4,13.2c-1,2.4-2,4.8-3,7.3c-0.2-2.5-0.5-4.9-0.7-7.3l0-0.2l0-0.2c-0.9-5.4-1.2-11.1-0.9-17.4
			c0.2-1.9,0.5-3.8,0.7-5.7c0.2-1.9,0.5-3.9,0.8-6c0.4-3.6,0.7-7.2,1-10.7c0.3-3.4,0.6-7,1-10.5c0.3-3.1,0.7-6.2,1.1-9.2
			c0.6-4.6,1.2-9.3,1.5-14.2c1.2-23.5-1.3-42-8-58.4c-1.5-3.8-2.3-8-3.2-12.6c-0.4-2.1-0.8-4.3-1.3-6.4c-1.7-7.4-3.5-14.9-5.2-22.1
			c-1.4-5.8-2.8-11.6-4.1-17.4c-1.8-8.8-4.8-17.8-9-26.8l-0.1-0.2l-0.1-0.2c-1.1-2-2.4-4.3-4.6-6.4c-1.9-1.9-4.3-2.9-6.7-2.9
			c-3.3,0-6.3,1.8-8.2,5c-1.1,1.6-2,3.6-2.4,5.6c-0.4,1.6-0.8,3.1-1.1,4.7l-6.1-0.1c-16.1-0.2-31.9-1.2-48.3-3
			c-16.4-1.8-33.9-3.5-52.2-5.3c-19.4-1.9-40.7-2.8-63.3-2.8c-1.5,0-3.1,0-4.6,0c-18.7,0-38.5,1.4-58.9,4.1
			c-19.6,3-34.7,7.8-46.2,14.7c-12.7,7.7-19.8,18.4-21,31.9l-0.7,8.4l8.3-1.5c13.3-2.4,26.6-4.3,40.7-5.7c15.1-1.2,29-2.1,42.4-2.8
			c13.1-0.6,29.3-1.1,48.3-1.4c-8.2,17.8-16.3,36.5-24,55.6c-10.6,26.2-19.9,49.9-28.5,72.4c-7.5,19.8-17.4,45.7-26.2,70.4
			c-8.3,22.5-15.2,42-20.9,58.5c-4.4,12.1-8.8,25.3-13,39.4c-3.9,12.7-6.1,25-6.3,36.7c-0.6,11,3,21.8,10.1,30.4
			c7.1,8.3,19,12.3,36.4,12.3h8.5l-2.3-8.2c-0.2-0.6-0.2-1.4,0-2l0.2-0.9v-6.4c0-11.6,1.1-22.8,3.2-33.3l0-0.2
			c2.1-12.4,5.5-25.9,8.9-38.7c3.8-14.3,8.1-30.5,12.8-48.3c14.8-53.6,28.7-99.2,42.5-139.5c12.3-36.6,24.2-69.7,35.6-98.4h7.7
			c4.2,0,8.1,0,11.9,0.2c4.2,0.3,8.2,0.3,12,0.3c16.7,0,33-1.4,48.6-4.1c15.6-2.9,30.1-10.1,41.8-20.6c-0.4,2-0.8,3.9-1.1,5.9
			c-0.9,5-1.3,9.9-1.7,14.7c-0.2,2.3-0.4,4.6-0.6,6.9c-0.2,2.3-0.6,4.7-0.9,7c-0.3,2.4-0.6,4.9-0.9,7.3c-0.6,5.8-1.2,11.7-1.8,17.5
			c-0.6,5.7-1.1,11.6-1.8,17.4c-0.3,3.2-0.8,6.4-1.2,9.7c-0.6,4.4-1.3,9-1.6,13.7c-0.6,11.2,1.4,22.4,5.8,32.5
			c2,5.3,4.5,10.2,6.9,14.8c1.1,2.1,2.1,4.1,3.1,6.1c5.5,11.9,14.1,22.1,24.9,29.5c2.8,1.9,4.8,4.8,5.4,7.9l0.1,0.3
			c1.8,6.9,2.8,14.5,3.1,22.6c-0.2,5.4-0.1,10.8-0.1,16c0,2.6,0.1,5.3,0.1,8v0.2l0,0.2c0.2,4.3,0,8.8-0.7,13.1
			c-1.2,5.1-2.6,10.3-4,15.4c-0.9,3.3-1.9,6.6-2.7,10c-0.5,1.1-0.7,2.1-0.8,2.7l0,0.2l-0.2,0.6l-0.1,0.8c-0.4,5.6-1.6,11.4-3.3,17.4
			l-0.1,0.2l0,0.2c-5.8,25.3-9,50.5-9.5,74.8c-0.2,8.5-0.3,17.2-0.3,25.8c-0.3,1.7-0.2,3.6,0.1,5.4c1,4.8,4.1,7.9,8.1,7.9
			c1.2,0,7-0.4,7.8-7.7c0-0.1,0-0.2,0-0.3c0.3-1.7,0.2-3.2,0.2-4.2c0-0.2,0-0.4,0-0.6v-0.3l0-0.3c-0.2-2.5-0.2-5-0.2-7.7
			c0-6.9,0.3-14,0.5-20.9c0.1-1.9,0.1-3.8,0.2-5.7c0.1-3.8,0.2-7.4,0.5-10.8c1.3-12,2.8-23.7,4.5-34.7c2.4-15,8.5-29,17.8-40.3
			l0.2-0.2c1.2-1.6,2.7-2.5,4.5-2.8c4.3-0.5,8.7-1.3,13-2.1c1.9-0.3,3.8-0.7,5.6-1c1.7-0.3,3.6-0.5,5.6-0.6c2.9-0.3,5.8-0.5,8.8-1.2
			c6.1-1.2,12.6-3,19.3-5.2c6.2-2,12-5.7,16.8-10.7c10.8-10.8,19.1-20.2,26.2-29.6l0.1-0.1c9.7-13.4,19.7-27.3,29.1-41.3
			c4.2-6.3,8.3-13,12.2-19.5c2.2-3.7,4.5-7.5,6.9-11.3c3.4-5.6,6-11.3,8.1-17.3l0.1-0.4l0.1-0.4c0.3-1.5,0.6-3.1,0.6-5
			c0-2.2-0.7-4-1.2-4.9c-1.8-3.6-5.6-6-9.7-6c-1.5,0-2.9,0.3-4.3,0.9c-2.7,1.1-5.3,2.5-8.2,4.4c-7.2,4.9-14.1,10-20.9,15
			c-13.3,9.8-27.2,18.7-41.4,26.5c-8.7,4.7-17,9.8-24.9,15.1c-9.3,6-17.1,13.6-23.4,22.6l-0.1,0.1c-5.9,9.1-11.2,18.5-15.5,28
			c-1.4,3-2.8,6-4.2,9c-1.2,2.7-2.5,5.5-3.8,8.2c2.7-8.9,5.6-17.5,8.7-25.8C450.8,561.3,457.8,544.8,464.5,528.8z M563.6,343.8
			c0.9-0.7,1.5-1.4,1.9-1.9l0.2-0.2l0.2-0.2l0.2-0.2c2.4-2.9,4.4-5.1,6.4-6.8c7.6-6.8,14.7-14.4,20.9-22.5
			c3.5-4.5,7.6-8.7,12.2-12.6l-0.5,1.2c-6,13.4-12.2,27.2-18.9,40.3c-4.3,8.3-9.4,16.6-14.4,24.7c-2.1,3.5-4.3,7-6.4,10.5l-0.1,0.1
			c-1.1,2-2.2,3.9-3.3,5.9c-2.1,3.9-4.2,7.7-6.4,11.2c-6,9.5-12.9,18.4-20.7,26.7v-8.6l-11.3,12.9c-3.4,3.9-6.7,7.5-9.9,10.7
			c7.1-11.3,14.8-22.3,23.1-32.8l9.6-12.2l-15.4,1.9c-3.9,0.5-7.6,2.8-9.8,6.3l-6,8.2c-2.4,3.3-4.7,6.6-7,9.9h-2
			c0.2-0.6,0.5-1.2,0.7-1.8l0.1-0.2l0.1-0.2c2.4-7.7,6.2-15.1,11.3-22.2c3.5-4.2,7.1-8.1,10.9-12.2c2.3-2.5,4.6-5,7-7.7
			c3.2-3.6,6.7-7.4,10.1-11.1L563.6,343.8z M518.7,308.1l-1.8,3.5c-0.9,1.9-1.4,4.1-1.4,6.4c0,1.1,0,2.3,0,3.4l-5,5.7
			c-2.6,3-4.4,7-4.8,10.9c-1.1,6.3-1.9,12.6-2.7,18.9l-1.3-0.4c-1-0.3-1.9-0.5-2.9-0.5c-1.4,0-6,0.5-7.4,6.2
			c-1,3.8-1.9,8.1-2.4,12.4l0,0.2c-0.4,3.9-0.6,7.8-0.7,11.6H486c0.1-1.6,0.2-3.1,0.4-4.6c1.2-9.1,3.3-18.6,6.3-28.2
			c2.6-8.7,5.4-17.4,8-25.9c2.7-8.5,5.4-17.3,8.1-26c1-3.1,2-6.2,3-9.3c1.3-4.1,2.7-8.4,4-12.7c0.6-1.7,1-3.4,1.3-4.9
			c0.3-1.3,0.5-2.5,0.9-3.5l0.1-0.3c1.1-3.6,2.3-7,3.6-10.6c2,15.7,3,31.1,3,47c0,0,0,0.5,0,0.6H518.7z M386.9,435.1
			c0.5-4.3,1.1-8.6,1.7-12.8l0.3-1.7c0.7-4.5,1.3-8.8,1.8-13.4c0.2-1.6,0.1-3.2,0-4.6c-0.1-1-0.1-2,0-2.7c0.7-5.3,1.2-10.6,1.8-15.7
			c1.1-10.5,2.2-20.6,4.1-30.6c2.5,7.9,4.6,16,6.2,24.2l0,0.2c1.1,4.8,2.2,9.5,3.2,14.3c2.3,10.4,4.8,21.2,7.4,31.7
			c0.3,1.2,0.6,2.4,0.9,3.5l-6.5-6.5l4.8,21.5c0.4,2,0.8,3.9,1.2,5.8c0.5,2.4,1,4.9,1.6,7.4c0.4,1.7,0.7,3.4,1,5.1
			c0,0-0.1-0.1-0.1-0.1L404.6,443v24.2l0.2,0.8c1.5,6,2.7,12.5,3.7,20.5l-4.1,1.4c-0.2,0.1-0.4,0.1-0.6,0.2c-1.2-3.5-2.3-7-3.2-10.5
			c-1.7-7.9-2.7-13.8-3.1-19.4l0-0.3c-0.2-2.1-0.4-4.1-0.6-6.2c-0.2-2.2-0.4-4.4-0.6-6.6l-0.1-1.1l-0.5-1l-0.1-0.2
			c-0.3-0.7-0.9-2.1-2.1-3.3L386.9,435.1z M500.2,592.1c-4.8,4-10,7.4-15.3,10l-1.5-4.6l-2.8,0.7c-0.5-0.5-1.1-0.9-1.7-1.3l2.6-2.8
			l-2.5,0.4c4.3-4,8.6-8.1,12.8-12.3c4.1-3.9,8-8.2,11.7-12.4c1.5-1.7,3-3.3,4.5-5l0.2-0.2l0.2-0.2c0.3-0.4,0.6-0.8,1-1.1
			c0.4-0.5,0.9-1,1.4-1.6c1-1.1,1.5-2.2,1.8-2.9l0.1-0.1l2.1-4.1l-6.6-6.6l-3.8,1.3c-1.5,0.5-2.7,1.4-3.4,2
			c-0.1,0.1-0.3,0.2-0.4,0.3l-0.7,0.5l-0.6,0.7c-5.2,6.1-10.7,12-16.4,17.9l1.2-1.8l-7.9-2.6c-0.3-0.1-0.7-0.2-1-0.3
			c0.2-0.3,0.4-0.6,0.6-0.9c5-6.8,11.9-12.9,19.8-17.7l0.1-0.1c6.5-4.1,13.2-8.1,19.7-12c6.6-3.9,13.4-8,20-12.2
			c8.8-5.4,17.4-11.4,25.6-17.2c3.1-2.1,6.1-4.3,9.2-6.4l2.7-2c-15.3,26.9-34,52.4-52.1,76c-2.3,3.1-4.9,6.1-7.7,9l0.1-0.8
			L500.2,592.1z"/>
	</g>
</g>
</svg>
