<svg id="Layer_1" data-name="Layer 1" xmlns="http://www.w3.org/2000/svg" width="913.57" height="585.94" viewBox="0 0 913.57 585.94"><path d="M67.5,572c-17.3,0-28.93-3.68-35.45-11.34a42.33,42.33,0,0,1-9.64-29.22,143.58,143.58,0,0,1,6.8-39.42c4.54-15.32,9.36-30.06,14.47-44,6.52-18.72,14.18-40.56,23.54-65.8,9.08-25.25,19-51.62,29.5-79.14s21.27-54.74,32.05-81.4,21.55-51,31.76-72.61c-26.37.29-48.5.85-66.08,1.71s-33.75,2-47.94,3.12C32.33,155.39,17,157.38,0,160.5c1.13-13.05,7.94-23,20.14-30.35s28.64-12.48,49.35-15.6A486.16,486.16,0,0,1,139.83,110c26.38,0,49.92,1.14,70.62,3.12s40.28,4,58.71,6,36.59,3.12,55,3.4a88.87,88.87,0,0,1-44.53,22.41,305.42,305.42,0,0,1-53.33,4.54c-4.25,0-8.5,0-13-.29s-9.08-.28-13.9-.28H185.78c-12.2,30.63-26.38,69.21-42,115.72Q120,334.37,95.87,422q-8.09,30.21-14.47,54.46c-4.25,15.88-7.94,30.63-10.21,44.25a198.39,198.39,0,0,0-3.69,38.85v6.24A11.8,11.8,0,0,0,67.5,572Z" fill="#014978"/><path d="M657.17,572c-17.31,0-28.93-3.68-35.46-11.34a42.38,42.38,0,0,1-9.64-29.22,143.59,143.59,0,0,1,6.81-39.42c4.53-15.32,9.36-30.06,14.18-44,6.52-18.72,14.46-40.56,23.54-65.8s19-51.62,29.5-79.14,21.27-54.45,32-81.4c10.77-26.66,21.55-51,31.76-72.89-26.38.28-48.5.85-66.08,1.7-17.87.85-33.76,1.7-47.94,3.12s-29.49,3.41-46.51,6.53c1.13-13.05,7.94-23,20.14-30.35s28.64-12.48,49.35-15.32A486.07,486.07,0,0,1,729.21,110c26.37,0,49.92,1.14,70.62,3.12s40.28,4,58.71,6,36.59,3.12,55,3.4a89.74,89.74,0,0,1-44.82,22.41,305.23,305.23,0,0,1-53.32,4.54c-4.25,0-8.51,0-13-.29s-9.07-.28-13.61-.28H775.15c-12.19,30.63-26.37,69.21-42,115.72s-31.77,99-47.94,157.41q-8.07,30.21-14.46,54.46c-4.25,15.88-7.94,30.63-10.21,44.25a198.39,198.39,0,0,0-3.69,38.85v6.24A22.93,22.93,0,0,0,657.17,572Z" fill="#014978"/><path d="M371,449.8a5,5,0,0,0,1.41-1.13c7.38-9.93,15.32-19,21-30.07,4.26-8.22,7.94-17,11.91-25.24a233,233,0,0,1,17-30.63,87.81,87.81,0,0,1,24.39-23.55c8.8-5.95,18.16-11.62,27.52-16.73a433.91,433.91,0,0,0,47.36-30.35c7.66-5.67,15.32-11.34,23.26-16.73a43,43,0,0,1,7.94-4.26,5,5,0,0,1,6.52,2.27,5.27,5.27,0,0,1,.57,2.27,21.47,21.47,0,0,1-.57,4.26,96.37,96.37,0,0,1-8.5,18.15c-7.1,11.34-13.9,23.26-21.28,34.32C519,348,508,363.29,496.92,378.61A317.67,317.67,0,0,1,468,411.23a37.67,37.67,0,0,1-15.89,10.21,175.48,175.48,0,0,1-21,5.67c-5.1,1.13-10.77,1.13-15.88,2-6.81,1.14-13.9,2.56-20.7,3.41a14.74,14.74,0,0,0-9.93,5.95A102.78,102.78,0,0,0,363,487.24c-2,13.05-3.68,26.38-5.1,39.42-.57,6.24-.57,12.48-.85,19-.29,7.94-.57,15.88-.57,23.82,0,3.12,0,6.24.28,9.36a18.12,18.12,0,0,1,0,4c-.28,1.42,0,3.12-1.7,3.12-.85,0-1.7-1.7-2-3.12a9.14,9.14,0,0,1,0-4c0-9.93,0-19.85.28-29.5a409,409,0,0,1,10.49-82.82,105.16,105.16,0,0,0,4-21,10.49,10.49,0,0,1,.85-2.84c2.55-9.93,5.67-19.86,7.94-29.78a80.35,80.35,0,0,0,.85-16.45c0-9.08-.28-17.87,0-27a125.71,125.71,0,0,0-3.69-27.23A22,22,0,0,0,364.75,329a75.61,75.61,0,0,1-25.53-30.34c-3.69-7.66-7.94-15-11.06-23.26a75.35,75.35,0,0,1-6-33.47c.57-8.79,2.27-17.3,3.12-26.09,1.42-13.05,2.55-26.1,4-39.14.57-5.39,1.42-10.78,2-16.17.85-7.94,1.13-15.88,2.55-23.83,1.42-8.5,3.69-16.73,5.67-24.95a10.11,10.11,0,0,1,1.7-4c1.42-2.55,3.69-3.12,5.68-1.13a25.9,25.9,0,0,1,4,5.67,126.18,126.18,0,0,1,9.64,28.65c3.4,14.75,7.09,29.5,10.5,44.53,1.7,7.37,2.55,15.31,5.38,22.41C384.6,228,386,249,384.88,270.55c-.56,8.79-2,17.3-2.83,26.09-.85,7.94-1.42,15.88-2.27,23.83-.57,4.53-1.14,8.79-1.7,13.33a106.92,106.92,0,0,0,1.13,21.27,154.13,154.13,0,0,1,1.13,16.16c.29,7.38,0,14.75.29,22.41v2c2.27.56,2.55-.85,3.12-2.27,2.55-7.09,4.54-14.18,7.37-21.27,4-10.22,8.23-19.86,12.2-30.07a464.31,464.31,0,0,1,28.36-63,8.06,8.06,0,0,0,1.14-3.41,64.1,64.1,0,0,1,4.25-20.7c3.12-8.23,6.24-16.45,9.64-24.39a14,14,0,0,0,0-9.65c-2.83-9.36-6.24-19-8.51-28.64a90,90,0,0,1-1.13-38.86c2.55-11.63,5.39-23.26,9.08-34.6,6.52-20.43,12.48-41.13,18.72-61.84,1.7-5.67,3.68-11.34,5.67-17C473.94,30,477.35,19.82,481,9.89a26.4,26.4,0,0,1,4.54-7.66c2.55-3.4,6.24-2.83,7.66,1.14a58.69,58.69,0,0,1,2.84,12.2c2,15.59,3.4,31.19,4,46.79.56,14.19,1.13,28.08,1.7,42.26.28,6.24.85,12.48.85,18.72-.29,3.41-.57,7.09-1.14,10.5,0,.57,0,1.42.29,1.42a1.83,1.83,0,0,0,1.7,0,7.62,7.62,0,0,0,1.7-1.42l21-21.56,2.55-2.55C541.45,97,554.21,84.2,565.84,70.31a93.3,93.3,0,0,1,23.82-19.57c1.7-1.14,3.41-2.56,5.67-1.14A5.44,5.44,0,0,1,597,55.27a32.1,32.1,0,0,1-1.71,7.09,597.85,597.85,0,0,1-28.07,61.27c-8,14.46-17,28.36-24.68,42.83a231.6,231.6,0,0,1-28.93,40.84,269.59,269.59,0,0,1-27.51,26.38c-13.33,11.62-26.66,23.25-40.84,33.75a37.83,37.83,0,0,0-9.08,11.06,206.06,206.06,0,0,0-15.32,30.63c-9.64,23-19.57,45.66-28.08,68.92a479.77,479.77,0,0,0-18.15,60.41c-.56,3.12-1.7,6.24-2.55,9.36a11.82,11.82,0,0,0-.28,3.12ZM475.93,161.35a10.63,10.63,0,0,0,6.24-8.79A285.48,285.48,0,0,0,486.71,106c0-6-.29-11.91-.29-17.87a9.2,9.2,0,0,1,.85-4h.85a4.06,4.06,0,0,1,.57,2c.28,6.81.57,13.33.85,20.14a229.74,229.74,0,0,1-2.83,34c-.29,2.55-.57,5.11-.86,7.38,0,.56.57,1.13.86,2,.56-.28,1.41-.28,1.7-.85a12.59,12.59,0,0,0,1.42-3.4,161.54,161.54,0,0,0,3.4-28.37v-1.41a2.84,2.84,0,0,1,1.42-1.14c.28,0,.85.57,1.13.85a18.73,18.73,0,0,1,.57,4c-.57,6-1.42,11.63-2,17.59v4.82h.85c1.14-5.39,2.27-10.78,3.12-16.45a85,85,0,0,0-.28-19c-.85-9.93-.85-19.86-1.13-30.07a421,421,0,0,0-4.26-59.84c-.57-3.41-1.13-6.81-1.7-10.21-.28-1.14-.57-2.84-2.27-2.84a3.42,3.42,0,0,0-3.12,2.27,6.7,6.7,0,0,0-1.7,3.12c-2.84,8.22-6,16.17-8.51,24.39-1.13,3.12-1.42,6.52-2.55,9.64-2.56,8.51-5.39,16.74-7.94,25-6,19.57-12.2,38.86-18.16,58.43a190.46,190.46,0,0,0-7.37,32.9,97.06,97.06,0,0,0,1.13,28.65,169.07,169.07,0,0,0,7.66,28.36,8.76,8.76,0,0,0,1.42,2,9.82,9.82,0,0,0,1.7-1.71,9.63,9.63,0,0,0,.57-8.79c-1.14-3.4-2.27-7.09-3.12-10.49-2-7.38-1.42-15-1.7-22.69,0-.57.56-1.14.85-2h.57a24,24,0,0,1,1.13,4.26c.57,5.1.57,10.21,1.42,15.31a95.94,95.94,0,0,0,2.83,12.2c.29.57,1.14,1.13,1.71,1.7l1.41-1.42a16.57,16.57,0,0,0,1.42-11.06,138.82,138.82,0,0,1-1.7-40.56,107.7,107.7,0,0,1,2.55-13.05c.29-1.13.57-2,2.27-1.41a4.88,4.88,0,0,1-.28,2,178.72,178.72,0,0,0-2.27,40.84c.57,3.41,1.13,6.81,2,10.21a14,14,0,0,0,3.68-10.49c-.28-9.08-.56-18.44-.85-27.51,0-3.41.29-7.09.29-10.5a12.86,12.86,0,0,1,.85-2h.85a10.15,10.15,0,0,1,.56,2.84c0,2.55-.28,5.1-.28,7.65,0,7.09,0,14.47.28,21.56a18.84,18.84,0,0,0,1.14,3.69h.85a10.24,10.24,0,0,0,.57-2.84c.56-5.39.85-10.49,1.41-15.88a421.62,421.62,0,0,1,5.11-46.23,15.4,15.4,0,0,1,3.69-8.51c-3.12,21.27-5.11,42.82-6.24,64.66.85-1.41,2.55-3.68,3.12-6.52ZM365.31,301.75l3.41,3.12a12.33,12.33,0,0,0,.85-2.27c-.85-6.53-2-13.33-3.12-19.86a226,226,0,0,0-4.82-27.51v-2.55c.56.85,1.13,1.13,1.13,1.7,0,2,1.13,3.4,1.7,4.82q2.55,14,5.11,28.08c.28,1.7.85,3.4,1.13,5.11l2-1.71a12.57,12.57,0,0,1,1.13,2,15.38,15.38,0,0,0,.85,2h.85a27.43,27.43,0,0,0,.57-4.83c.28-4.82,0-9.64.28-14.18a125.83,125.83,0,0,0-2.83-34.32c-1.14-4.82-2-9.64-3.12-14.75h0a19.24,19.24,0,0,1,2.27,2.56,142.05,142.05,0,0,1,5.39,24.67c.56,3.41,1.13,6.81,1.7,10.5a2.18,2.18,0,0,0,.56-1.14,1,1,0,0,1,.29-.85,121.49,121.49,0,0,0-2.84-35.17c-2-7.37-4.82-14.46-6.52-21.55-4.26-17-7.94-34.32-11.91-51.62A250.29,250.29,0,0,0,350,119.37a49.34,49.34,0,0,0-4-7.65c-1.71-2.56-3.12-2.27-4,.56-.86,2.27-1.42,4.54-2.27,7.09-4.54,19.86-5.68,40-8.23,60.13-.28,2.84.28,5.67,0,8.23-.57,5.67-1.42,11.06-2.27,16.73-1.13,8.23-2.27,16.74-3.12,25a95,95,0,0,0,.29,28.36,98.12,98.12,0,0,0,12.19,32.9,25.06,25.06,0,0,0,2.55,2.84l1.42-2.84c2.56,2,2.56,6,6,7.38-1.14-3.4-2.27-6.24-3.12-9.36a171.7,171.7,0,0,1-6-19.57c-1.7-8.79-2.55-17.87-3.68-26.66a20.84,20.84,0,0,1,.85-10.21,7.15,7.15,0,0,1,1.13,2c.57,4.82.85,9.65,1.42,14.47a160.49,160.49,0,0,0,3.69,23,195.91,195.91,0,0,0,22.4,51.91c.57.85,1.14,1.41,1.7,2.26a4.61,4.61,0,0,0,2.56.86v-2.84c0-.28-.29-.57-.29-.85-2-4.26-4.25-8.51-6.24-12.77-2.83-6.24-5.1-12.76-7.65-19.28-.29-1.14-.57-2,1.13-2.55,4,8.22,6,17.58,12.48,24.39a26.9,26.9,0,0,0-1.13-4.54,11.77,11.77,0,0,1-2.56-6.52ZM434.8,408.67h0c-.28.29-.57.85-.85.85-2,.29-1.7,1.71-1.7,3.12l6-1.41.28.85c-2.27,1.13-4.26,2.27-6.24,3.4s-4,1.42-3.69,4.54a71.56,71.56,0,0,0,10.78-2,93.7,93.7,0,0,0,27.23-15.88l-.57,4a5.85,5.85,0,0,0,1.7-1.13c7.66-8.51,16.17-16.17,23-25.25,22.12-28.93,43.67-58.42,61.26-90.19a49.82,49.82,0,0,0,4.25-11.91c.57-2.56-.28-3.41-2.83-2.84a9.9,9.9,0,0,0-4.26,2l-12.76,9.36c-12.76,8.79-25.53,18.15-38.86,26.37-14.75,9.36-30.06,17.87-44.81,27.23a85.48,85.48,0,0,0-24.39,21.84,190.45,190.45,0,0,0-19.57,33.75c-4.26,8.51-8.23,16.74-12.2,25.25l-2.55,6v1.7c.57,0,1.42,0,1.7-.28a4.41,4.41,0,0,0,1.7-2.27c5.11-8.51,10.21-17,15-25.53a183.29,183.29,0,0,1,16.74-25c1.42-1.71,1.42-1.71,3.12-1.14-4.82,7.38-9.93,14.75-14.75,22.12s-8.79,15.32-13.33,23c1.42.85,2.27.28,2.84-1.14a17.75,17.75,0,0,1,3.68-5.67L426.86,397A476.34,476.34,0,0,0,466,356.77a13,13,0,0,1,2.55-1.7l.57.57a7.3,7.3,0,0,1-1.13,2c-.85,1.14-2,2.27-2.84,3.4-6,6.53-11.63,13.33-17.87,19.29-8.79,8.79-18.15,17.3-27.23,25.81l-2.55,3.4,4-.56h0a45.47,45.47,0,0,1-15.31,10.78l.56,2a13.81,13.81,0,0,0,3.12-1.13c6.24-3.41,12.48-6.81,18.44-10.21a40.49,40.49,0,0,1,5.39-2A.85.85,0,0,1,434.8,408.67Zm51.05-183.5.86.85,3.4-2.56a205.92,205.92,0,0,0,40.56-46.79c4-6.24,7.37-13,11.06-19.57,7.94-13.33,16.45-26.38,23.54-40,8.51-16.73,16.17-34,23.82-51a67.65,67.65,0,0,0,3.41-10.78,2.72,2.72,0,0,0-.85-2.83,3.78,3.78,0,0,0-2.56,0c-1.13.56-2,1.13-3.11,1.7A104.65,104.65,0,0,0,561.3,76.83a185.37,185.37,0,0,1-22.69,24.39,75.24,75.24,0,0,0-7.94,8.51,13.33,13.33,0,0,1-2,2l-19.57,19.57c-4,4.25-7.94,8.5-11.63,12.76-6.8,7.66-13.89,14.75-20.42,22.69A95.08,95.08,0,0,0,463.16,194c-2,5.1-3.68,10.21-5.67,15.31,2-.56,1.7-3.4,4.82-3.4l-8.22,19.29.57.28c3.12-2.27,2-7.94,7.09-9.08-2.84,5.11-5.39,9.93-7.66,15-4,7.94-7.66,15.88-11.35,23.82a14.8,14.8,0,0,1-5.39,7.09,3.86,3.86,0,0,0-1.41,5.39c.28.28.28.57.56.85A29.64,29.64,0,0,0,445,257.5c2.84-5.11,5.11-10.49,7.94-15.6A519.72,519.72,0,0,1,485,191.7l6.81-9.36a8.42,8.42,0,0,1,6-4,452.55,452.55,0,0,0-49.92,79.7,5.94,5.94,0,0,0,2.83-1.7l4.26-5.11c1.42-1.7,4-3.4,5.67-5.11a4.54,4.54,0,0,0,1.7-3.68,4.42,4.42,0,0,1,1.42-4c1.14-1.14,2.27-2.84,3.41-4L469.4,232l.57.29-.57,4.82a224.66,224.66,0,0,0,24.68-24.68v1.42a22,22,0,0,1-6,8.51A35.66,35.66,0,0,0,485.85,225.17ZM465.15,407l-.57-.57-1.7.86c-2.84,1.7-5.67,4-8.79,5.38a55.67,55.67,0,0,1-7.38,2.84,1.51,1.51,0,0,0-1.13.85,5.61,5.61,0,0,0-.28,2.27,7.93,7.93,0,0,0,2.55.28A31,31,0,0,0,460,412.64c1.71-2,3.41-4,5.11-5.67Zm-33.75,5.67c-1.7-.28-15.32,7.1-17,9.65a10.24,10.24,0,0,0,2.84-.57c4-1.7,7.65-3.4,11.34-5.1,1.14-1.14,3.41-1.71,2.84-4Zm7.37,8.51,6.53-2.27c-3.41-1.7-4-1.7-6.53,2.27ZM348.58,306l-.57.57c.57,2.27,1.14,3.12,3.69,3.12Z" fill="#014978"/></svg>